<?xml version="1.0" standalone="no"?>
<!DOCTYPE svg PUBLIC "-//W3C//DTD SVG 20010904//EN"
 "http://www.w3.org/TR/2001/REC-SVG-20010904/DTD/svg10.dtd">
<svg version="1.0" xmlns="http://www.w3.org/2000/svg"
 width="1080.000000pt" height="1080.000000pt" viewBox="0 0 1080.000000 1080.000000"
 preserveAspectRatio="xMidYMid meet">

<g transform="translate(0.000000,1080.000000) scale(0.100000,-0.100000)"
fill="#000000" stroke="none">
<path d="M0 7225 l0 -3575 35 0 c24 0 35 5 35 15 0 12 14 15 65 15 l65 0 0
-185 c0 -178 1 -185 20 -185 13 0 20 -7 20 -20 0 -16 -7 -20 -35 -20 l-35 0 0
135 0 135 -70 0 -70 0 0 -30 c0 -23 4 -30 20 -30 18 0 20 -7 20 -70 0 -56 3
-70 15 -70 8 0 15 -7 15 -15 0 -10 -11 -15 -35 -15 -28 0 -35 -4 -35 -20 0
-11 -7 -20 -15 -20 -10 0 -15 -10 -15 -30 0 -20 5 -30 15 -30 8 0 15 -9 15
-20 0 -13 7 -20 20 -20 13 0 20 7 20 20 0 11 7 20 15 20 8 0 15 -9 15 -20 0
-19 7 -20 205 -20 176 0 205 -2 205 -15 0 -8 -9 -15 -20 -15 -11 0 -20 -7 -20
-15 0 -8 -7 -15 -15 -15 -8 0 -15 -9 -15 -20 0 -13 -7 -20 -20 -20 -11 0 -20
-7 -20 -15 0 -8 -7 -15 -15 -15 -8 0 -15 -9 -15 -20 0 -11 -7 -20 -15 -20 -8
0 -15 -7 -15 -15 0 -8 -9 -15 -20 -15 -11 0 -20 -7 -20 -15 0 -8 -7 -15 -15
-15 -8 0 -15 -9 -15 -20 0 -11 -7 -20 -15 -20 -8 0 -15 -7 -15 -15 0 -8 -9
-15 -20 -15 -11 0 -20 -7 -20 -15 0 -8 -7 -15 -15 -15 -8 0 -15 -9 -15 -20 0
-13 -7 -20 -20 -20 -11 0 -20 -7 -20 -15 0 -8 -7 -15 -15 -15 -8 0 -15 -9 -15
-20 0 -11 -7 -20 -15 -20 -8 0 -15 -7 -15 -15 0 -8 -9 -15 -20 -15 -11 0 -20
-7 -20 -15 0 -8 -7 -15 -15 -15 -13 0 -15 -155 -15 -1335 l0 -1335 5400 0
5400 0 0 5400 0 5400 -5400 0 -5400 0 0 -3575z m6380 2160 c0 -28 -4 -35 -20
-35 -11 0 -20 7 -20 15 0 8 -7 15 -15 15 -8 0 -15 -7 -15 -15 0 -8 7 -15 15
-15 8 0 15 -7 15 -15 0 -8 -7 -15 -15 -15 -8 0 -15 -9 -15 -20 0 -11 7 -20 15
-20 8 0 15 9 15 20 0 13 7 20 20 20 16 0 20 -7 20 -35 0 -33 -2 -35 -35 -35
-28 0 -35 -4 -35 -20 0 -17 7 -20 50 -20 l50 0 0 -80 c0 -64 -3 -80 -15 -80
-12 0 -15 14 -15 65 l0 65 -35 0 -35 0 0 -100 c0 -82 -3 -100 -15 -100 -12 0
-15 18 -15 100 0 82 3 100 15 100 8 0 15 7 15 15 0 8 -7 15 -15 15 -12 0 -15
16 -15 85 0 78 -2 85 -20 85 -13 0 -20 7 -20 20 0 18 7 20 70 20 l70 0 0 -35z
m70 -55 c0 -43 -3 -50 -20 -50 -17 0 -20 7 -20 50 0 43 3 50 20 50 17 0 20 -7
20 -50z m30 -250 c0 -20 -5 -30 -15 -30 -10 0 -15 10 -15 30 0 20 5 30 15 30
10 0 15 -10 15 -30z m-170 -155 c0 -8 -7 -15 -15 -15 -8 0 -15 7 -15 15 0 8 7
15 15 15 8 0 15 -7 15 -15z m410 -130 c0 -8 7 -15 15 -15 8 0 15 -9 15 -20 0
-11 7 -20 15 -20 8 0 15 -7 15 -15 0 -8 9 -15 20 -15 13 0 20 -7 20 -20 0 -11
7 -20 15 -20 8 0 15 -7 15 -15 0 -8 7 -15 15 -15 8 0 15 -7 15 -15 0 -8 -7
-15 -15 -15 -8 0 -15 7 -15 15 0 8 -7 15 -15 15 -8 0 -15 7 -15 15 0 8 -9 15
-20 15 -13 0 -20 7 -20 20 0 11 -7 20 -15 20 -8 0 -15 7 -15 15 0 12 -14 15
-70 15 -56 0 -70 -3 -70 -15 0 -8 -7 -15 -15 -15 -10 0 -15 -11 -15 -35 0 -24
-5 -35 -15 -35 -11 0 -15 12 -15 50 0 38 4 50 15 50 8 0 15 9 15 20 0 11 7 20
15 20 8 0 15 7 15 15 0 12 13 15 55 15 42 0 55 -3 55 -15z m-4700 -170 c0 -8
9 -15 20 -15 13 0 20 -7 20 -20 0 -11 7 -20 15 -20 8 0 15 -7 15 -15 0 -13
-29 -15 -200 -15 -171 0 -200 2 -200 15 0 8 -9 15 -20 15 -13 0 -20 7 -20 20
0 11 -7 20 -15 20 -8 0 -15 7 -15 15 0 13 29 15 200 15 171 0 200 -2 200 -15z
m4700 -28 c0 -5 -8 -6 -17 -3 -15 5 -15 4 1 -9 11 -8 26 -15 33 -15 7 0 13 -7
13 -15 0 -8 7 -15 15 -15 8 0 15 -7 15 -15 0 -8 -7 -15 -15 -15 -8 0 -15 7
-15 15 0 8 -7 15 -15 15 -8 0 -15 7 -15 15 0 14 -12 19 -32 16 -5 0 -8 8 -8
18 0 14 6 19 20 18 11 -1 20 -5 20 -10z m-510 -72 c0 -8 7 -15 15 -15 8 0 15
-9 15 -20 0 -13 7 -20 20 -20 11 0 20 -7 20 -15 0 -8 7 -15 15 -15 8 0 15 -9
15 -20 0 -11 7 -20 15 -20 8 0 15 -7 15 -15 0 -8 9 -15 20 -15 11 0 20 -7 20
-15 0 -8 7 -15 15 -15 8 0 15 -9 15 -20 0 -13 7 -20 20 -20 11 0 20 -7 20 -15
0 -8 7 -15 15 -15 8 0 15 -7 15 -15 0 -8 7 -15 15 -15 8 0 15 -9 15 -20 0 -13
7 -20 20 -20 13 0 20 -7 20 -20 0 -17 -7 -20 -50 -20 -43 0 -50 3 -50 20 0 13
-7 20 -20 20 -13 0 -20 7 -20 20 0 11 -7 20 -15 20 -8 0 -15 7 -15 15 0 8 -9
15 -20 15 -11 0 -20 7 -20 15 0 8 -7 15 -15 15 -8 0 -15 9 -15 20 0 11 -7 20
-15 20 -8 0 -15 7 -15 15 0 8 -9 15 -20 15 -11 0 -20 7 -20 15 0 8 -7 15 -15
15 -8 0 -15 9 -15 20 0 13 -7 20 -20 20 -17 0 -20 7 -20 50 0 43 3 50 20 50
11 0 20 -7 20 -15z m640 -70 c0 -8 -7 -15 -15 -15 -8 0 -15 -9 -15 -20 0 -16
-7 -20 -35 -20 -28 0 -35 4 -35 20 0 16 7 20 35 20 24 0 35 5 35 15 0 8 7 15
15 15 8 0 15 -7 15 -15z m-5970 -120 c0 -28 -4 -35 -20 -35 -13 0 -20 7 -20
20 0 11 -7 20 -15 20 -8 0 -15 7 -15 15 0 10 11 15 35 15 33 0 35 -2 35 -35z
m5330 20 c0 -8 7 -15 15 -15 8 0 15 -9 15 -20 0 -13 7 -20 20 -20 11 0 20 -7
20 -15 0 -8 7 -15 15 -15 8 0 15 -7 15 -15 0 -8 7 -15 15 -15 8 0 15 -9 15
-20 0 -13 7 -20 20 -20 13 0 20 -7 20 -20 0 -17 -7 -20 -50 -20 -43 0 -50 3
-50 20 0 13 -7 20 -20 20 -13 0 -20 7 -20 20 0 11 -7 20 -15 20 -8 0 -15 7
-15 15 0 8 -9 15 -20 15 -17 0 -20 7 -20 50 0 43 3 50 20 50 11 0 20 -7 20
-15z m940 -745 c0 -11 -7 -20 -15 -20 -11 0 -15 -12 -15 -50 0 -38 -4 -50 -15
-50 -10 0 -15 11 -15 35 0 28 -4 35 -20 35 -11 0 -20 7 -20 15 0 8 9 15 20 15
13 0 20 7 20 20 0 16 7 20 30 20 23 0 30 -4 30 -20z m510 0 c0 -11 7 -20 15
-20 8 0 15 -7 15 -15 0 -8 -7 -15 -15 -15 -10 0 -15 -11 -15 -35 0 -24 -5 -35
-15 -35 -11 0 -15 12 -15 50 0 43 -3 50 -20 50 -13 0 -20 7 -20 20 0 16 7 20
35 20 28 0 35 -4 35 -20z m-3310 -185 l0 -35 -50 0 c-43 0 -50 3 -50 20 0 16
7 20 35 20 24 0 35 5 35 15 0 8 7 15 15 15 10 0 15 -11 15 -35z m0 -185 c0
-11 -7 -20 -15 -20 -8 0 -15 9 -15 20 0 11 7 20 15 20 8 0 15 -9 15 -20z m0
-85 c0 -24 -5 -35 -15 -35 -10 0 -15 11 -15 35 0 24 5 35 15 35 10 0 15 -11
15 -35z m0 -455 c0 -11 -7 -20 -15 -20 -8 0 -15 9 -15 20 0 11 7 20 15 20 8 0
15 -9 15 -20z m6080 -335 c0 -8 7 -15 15 -15 8 0 15 -9 15 -20 0 -13 7 -20 20
-20 11 0 20 -7 20 -15 0 -8 7 -15 15 -15 8 0 15 -9 15 -20 0 -13 7 -20 20 -20
11 0 20 -7 20 -15 0 -8 -9 -15 -20 -15 -11 0 -20 -7 -20 -15 0 -12 -14 -15
-70 -15 -56 0 -70 3 -70 15 0 8 -7 15 -15 15 -8 0 -15 7 -15 15 0 8 -7 15 -15
15 -8 0 -15 9 -15 20 0 13 -7 20 -20 20 -17 0 -20 7 -20 50 l0 50 70 0 c56 0
70 -3 70 -15z m-4390 -70 c0 -8 -7 -15 -15 -15 -8 0 -15 7 -15 15 0 8 7 15 15
15 8 0 15 -7 15 -15z m70 0 c0 -8 -9 -15 -20 -15 -11 0 -20 7 -20 15 0 8 9 15
20 15 11 0 20 -7 20 -15z m4080 -70 c0 -8 -7 -15 -15 -15 -8 0 -15 -7 -15 -15
0 -8 -9 -15 -20 -15 -13 0 -20 -7 -20 -20 0 -11 -7 -20 -15 -20 -8 0 -15 -7
-15 -15 0 -8 -7 -15 -15 -15 -8 0 -15 -7 -15 -15 0 -8 -9 -15 -20 -15 -11 0
-20 7 -20 15 0 8 9 15 20 15 11 0 20 7 20 15 0 8 7 15 15 15 8 0 15 9 15 20 0
11 7 20 15 20 8 0 15 7 15 15 0 8 9 15 20 15 11 0 20 7 20 15 0 8 7 15 15 15
8 0 15 -7 15 -15z m100 -30 c0 -8 9 -15 20 -15 13 0 20 -7 20 -20 0 -11 7 -20
15 -20 8 0 15 -7 15 -15 0 -8 -7 -15 -15 -15 -8 0 -15 -7 -15 -15 0 -8 -9 -15
-20 -15 -13 0 -20 -7 -20 -20 0 -11 -7 -20 -15 -20 -8 0 -15 -7 -15 -15 0 -11
-12 -15 -50 -15 -43 0 -50 -3 -50 -20 0 -16 -7 -20 -35 -20 -33 0 -35 2 -35
35 0 24 5 35 15 35 10 0 15 11 15 35 0 28 4 35 20 35 11 0 20 7 20 15 0 8 7
15 15 15 10 0 15 -10 15 -30 0 -23 4 -30 20 -30 18 0 20 7 20 65 l0 65 30 0
c20 0 30 -5 30 -15z m-5260 -155 l0 -70 -120 0 c-113 0 -120 1 -120 20 0 11
-7 20 -15 20 -8 0 -15 -9 -15 -20 0 -19 -7 -20 -120 -20 -113 0 -120 1 -120
20 0 13 7 20 20 20 11 0 20 7 20 15 0 8 7 15 15 15 8 0 15 9 15 20 0 11 7 20
15 20 8 0 15 7 15 15 0 13 29 15 205 15 l205 0 0 -70z m270 35 c0 -28 -4 -35
-20 -35 -11 0 -20 -7 -20 -15 0 -8 -7 -15 -15 -15 -8 0 -15 -9 -15 -20 0 -18
-7 -20 -85 -20 l-85 0 0 70 0 70 120 0 120 0 0 -35z m4720 -100 l0 -65 105 0
c98 0 105 -1 105 -20 0 -13 -7 -20 -20 -20 -11 0 -20 -7 -20 -15 0 -12 -14
-15 -65 -15 -51 0 -65 -3 -65 -15 0 -10 -11 -15 -35 -15 -28 0 -35 -4 -35 -20
0 -17 -7 -20 -50 -20 -43 0 -50 3 -50 20 0 13 -7 20 -20 20 -16 0 -20 7 -20
30 0 23 4 30 20 30 16 0 20 7 20 35 0 28 -4 35 -20 35 -11 0 -20 -7 -20 -15 0
-8 -7 -15 -15 -15 -8 0 -15 7 -15 15 0 8 7 15 15 15 8 0 15 7 15 15 0 10 11
15 35 15 28 0 35 4 35 20 0 16 7 20 35 20 24 0 35 5 35 15 0 8 7 15 15 15 12
0 15 -14 15 -65z m-4320 15 c0 -11 -7 -20 -15 -20 -8 0 -15 9 -15 20 0 11 7
20 15 20 8 0 15 -9 15 -20z m340 0 c0 -11 -7 -20 -15 -20 -8 0 -15 9 -15 20 0
11 7 20 15 20 8 0 15 -9 15 -20z m300 0 c0 -11 -7 -20 -15 -20 -8 0 -15 9 -15
20 0 11 7 20 15 20 8 0 15 -9 15 -20z m70 0 c0 -11 -7 -20 -15 -20 -8 0 -15 9
-15 20 0 11 7 20 15 20 8 0 15 -9 15 -20z m3210 -135 c0 -10 -11 -15 -35 -15
l-35 0 0 -70 0 -70 35 0 c24 0 35 -5 35 -15 0 -8 7 -15 15 -15 8 0 15 -7 15
-15 0 -8 9 -15 20 -15 13 0 20 -7 20 -20 0 -11 7 -20 15 -20 10 0 15 -10 15
-30 0 -20 5 -30 15 -30 12 0 15 -13 15 -55 0 -42 -3 -55 -15 -55 -8 0 -15 -7
-15 -15 0 -8 -7 -15 -15 -15 -8 0 -15 -7 -15 -15 0 -8 -9 -15 -20 -15 -13 0
-20 -7 -20 -20 0 -13 7 -20 20 -20 13 0 20 7 20 20 0 11 7 20 15 20 8 0 15 7
15 15 0 8 7 15 15 15 8 0 15 7 15 15 0 8 9 15 20 15 13 0 20 7 20 20 0 11 7
20 15 20 8 0 15 -9 15 -20 0 -11 -7 -20 -15 -20 -8 0 -15 -7 -15 -15 0 -8 -9
-15 -20 -15 -11 0 -20 -7 -20 -15 0 -8 -7 -15 -15 -15 -8 0 -15 -9 -15 -20 0
-11 -7 -20 -15 -20 -8 0 -15 -7 -15 -15 0 -8 -9 -15 -20 -15 -11 0 -20 7 -20
15 0 8 -7 15 -15 15 -10 0 -15 -10 -15 -30 0 -23 -4 -30 -20 -30 -13 0 -20 -7
-20 -20 0 -11 -7 -20 -15 -20 -8 0 -15 -7 -15 -15 0 -8 -7 -15 -15 -15 -10 0
-15 -11 -15 -35 0 -28 -4 -35 -20 -35 -11 0 -20 -7 -20 -15 0 -8 -7 -15 -15
-15 -8 0 -15 -9 -15 -20 0 -11 -7 -20 -15 -20 -8 0 -15 -7 -15 -15 0 -8 -9
-15 -20 -15 -11 0 -20 -7 -20 -15 0 -8 -7 -15 -15 -15 -10 0 -15 -11 -15 -35
0 -28 -4 -35 -20 -35 -13 0 -20 -7 -20 -20 0 -11 -7 -20 -15 -20 -8 0 -15 -7
-15 -15 0 -8 -7 -15 -15 -15 -8 0 -15 -7 -15 -15 0 -8 -9 -15 -20 -15 -13 0
-20 -7 -20 -20 0 -11 -7 -20 -15 -20 -8 0 -15 -7 -15 -15 0 -8 -7 -15 -15 -15
-8 0 -15 -7 -15 -15 0 -8 -9 -15 -20 -15 -13 0 -20 -7 -20 -20 0 -11 -7 -20
-15 -20 -8 0 -15 -7 -15 -15 0 -8 -9 -15 -20 -15 -13 0 -20 -7 -20 -20 0 -11
-7 -20 -15 -20 -8 0 -15 -7 -15 -15 0 -8 -7 -15 -15 -15 -8 0 -15 -7 -15 -15
0 -8 -9 -15 -20 -15 -13 0 -20 -7 -20 -20 0 -11 -7 -20 -15 -20 -8 0 -15 -7
-15 -15 0 -12 -14 -15 -70 -15 -56 0 -70 3 -70 15 0 12 13 15 55 15 48 0 55 2
55 20 0 18 -7 20 -55 20 -42 0 -55 3 -55 15 0 8 -7 15 -15 15 -8 0 -15 7 -15
15 0 8 -7 15 -15 15 -8 0 -15 9 -15 20 0 13 -7 20 -20 20 -11 0 -20 7 -20 15
0 8 -7 15 -15 15 -8 0 -15 9 -15 20 0 11 -7 20 -15 20 -8 0 -15 7 -15 15 0 8
-9 15 -20 15 -11 0 -20 7 -20 15 0 8 -7 15 -15 15 -8 0 -15 9 -15 20 0 13 -7
20 -20 20 -17 0 -20 7 -20 50 0 38 -4 50 -15 50 -8 0 -15 -9 -15 -20 0 -11 -7
-20 -15 -20 -8 0 -15 -7 -15 -15 0 -8 7 -15 15 -15 8 0 15 -7 15 -15 0 -8 -7
-15 -15 -15 -8 0 -15 7 -15 15 0 8 -9 15 -20 15 -16 0 -20 -7 -20 -35 0 -24
-5 -35 -15 -35 -11 0 -15 12 -15 50 l0 50 35 0 c28 0 35 4 35 20 0 11 7 20 15
20 8 0 15 7 15 15 0 8 7 15 15 15 8 0 15 9 15 20 0 13 7 20 20 20 11 0 20 7
20 15 0 8 7 15 15 15 8 0 15 7 15 15 0 8 9 15 20 15 13 0 20 7 20 20 0 11 7
20 15 20 8 0 15 7 15 15 0 8 7 15 15 15 8 0 15 7 15 15 0 8 9 15 20 15 13 0
20 7 20 20 0 11 7 20 15 20 8 0 15 7 15 15 0 8 7 15 15 15 8 0 15 9 15 20 0
13 7 20 20 20 11 0 20 7 20 15 0 8 7 15 15 15 8 0 15 7 15 15 0 8 9 15 20 15
13 0 20 7 20 20 0 11 7 20 15 20 8 0 15 7 15 15 0 8 7 15 15 15 8 0 15 7 15
15 0 8 9 15 20 15 13 0 20 7 20 20 0 16 7 20 30 20 20 0 30 5 30 15 0 12 14
15 70 15 63 0 70 2 70 20 0 11 7 20 15 20 8 0 15 7 15 15 0 8 9 15 20 15 11 0
20 7 20 15 0 8 7 15 15 15 8 0 15 9 15 20 0 11 7 20 15 20 8 0 15 7 15 15 0 8
9 15 20 15 11 0 20 7 20 15 0 8 7 15 15 15 10 0 15 11 15 35 0 28 4 35 20 35
11 0 20 -7 20 -15 0 -8 7 -15 15 -15 11 0 15 12 15 50 0 38 4 50 15 50 8 0 15
7 15 15 0 12 14 15 70 15 56 0 70 -3 70 -15z m-3850 -135 c0 -11 -7 -20 -15
-20 -8 0 -15 9 -15 20 0 11 7 20 15 20 8 0 15 -9 15 -20z m340 0 c0 -13 -7
-20 -20 -20 -13 0 -20 7 -20 20 0 13 7 20 20 20 13 0 20 -7 20 -20z m230 0 c0
-11 -7 -20 -15 -20 -8 0 -15 9 -15 20 0 11 7 20 15 20 8 0 15 -9 15 -20z
m3620 -170 c0 -43 -3 -50 -20 -50 -11 0 -20 -7 -20 -15 0 -8 -7 -15 -15 -15
-8 0 -15 7 -15 15 0 8 7 15 15 15 11 0 15 12 15 50 0 43 3 50 20 50 17 0 20
-7 20 -50z m-4260 -65 c0 -8 -7 -15 -15 -15 -8 0 -15 7 -15 15 0 8 7 15 15 15
8 0 15 -7 15 -15z m70 0 c0 -8 -7 -15 -15 -15 -8 0 -15 7 -15 15 0 8 7 15 15
15 8 0 15 -7 15 -15z m-570 -50 c0 -33 -2 -35 -35 -35 -24 0 -35 5 -35 15 0 8
7 15 15 15 8 0 15 9 15 20 0 13 7 20 20 20 16 0 20 -7 20 -35z m4860 -590 c0
-8 -9 -15 -20 -15 -11 0 -20 7 -20 15 0 8 9 15 20 15 11 0 20 -7 20 -15z m170
-35 c0 -13 -7 -20 -20 -20 -13 0 -20 7 -20 20 0 13 7 20 20 20 13 0 20 -7 20
-20z m-1730 -35 c0 -8 9 -15 20 -15 11 0 20 -7 20 -15 0 -8 7 -15 15 -15 8 0
15 -9 15 -20 0 -13 7 -20 20 -20 11 0 20 -7 20 -15 0 -8 7 -15 15 -15 8 0 15
-9 15 -20 0 -11 7 -20 15 -20 8 0 15 -7 15 -15 0 -8 9 -15 20 -15 11 0 20 -7
20 -15 0 -8 7 -15 15 -15 8 0 15 -9 15 -20 0 -11 -7 -20 -15 -20 -8 0 -15 9
-15 20 0 16 -7 20 -35 20 -32 0 -35 2 -35 30 0 20 -5 30 -15 30 -8 0 -15 9
-15 20 0 13 -7 20 -20 20 -11 0 -20 7 -20 15 0 8 -7 15 -15 15 -8 0 -15 9 -15
20 0 13 -7 20 -20 20 -11 0 -20 7 -20 15 0 8 -7 15 -15 15 -8 0 -15 7 -15 15
0 8 7 15 15 15 8 0 15 -7 15 -15z m-60 -30 c0 -8 -9 -15 -20 -15 -11 0 -20 7
-20 15 0 8 9 15 20 15 11 0 20 -7 20 -15z m1140 0 c0 -8 -7 -15 -15 -15 -8 0
-15 7 -15 15 0 8 7 15 15 15 8 0 15 -7 15 -15z m-2190 -70 c0 -8 -7 -15 -15
-15 -8 0 -15 7 -15 15 0 8 7 15 15 15 8 0 15 -7 15 -15z m2260 -35 c0 -11 -7
-20 -15 -20 -8 0 -15 9 -15 20 0 11 7 20 15 20 8 0 15 -9 15 -20z m-2120 -100
c0 -20 -5 -21 -135 -19 -125 1 -135 2 -135 20 0 18 9 19 135 19 129 0 135 -1
135 -20z m-1790 -35 c0 -8 -9 -15 -20 -15 -11 0 -20 7 -20 15 0 8 9 15 20 15
11 0 20 -7 20 -15z m100 0 c0 -8 -9 -15 -20 -15 -11 0 -20 7 -20 15 0 8 9 15
20 15 11 0 20 -7 20 -15z m1650 -28 c0 -10 -27 -13 -115 -13 -88 0 -115 3
-115 13 0 10 27 13 115 13 88 0 115 -3 115 -13z m-2162 -41 c1 -17 -1 -18 -8
-6 -7 10 -10 11 -10 3 0 -7 -11 -13 -25 -13 -18 0 -25 5 -25 20 0 16 6 19 33
18 26 -1 33 -6 35 -22z m68 -35 c2 -8 1 -8 -3 0 -4 8 -7 8 -13 -1 -5 -9 -9 -8
-13 3 -4 10 0 14 11 13 9 -2 17 -8 18 -15z m-1013 -66 c1 -5 -27 -10 -64 -10
-40 -1 -66 3 -66 10 0 14 126 14 130 0z m-233 -235 c0 -20 -7 -20 -1030 -20
-1023 0 -1030 0 -1030 20 0 20 7 20 1030 20 1023 0 1030 0 1030 -20z m-1520
-200 c0 -11 -7 -20 -15 -20 -8 0 -15 9 -15 20 0 11 7 20 15 20 8 0 15 -9 15
-20z m370 0 c0 -11 -7 -20 -15 -20 -8 0 -15 9 -15 20 0 11 7 20 15 20 8 0 15
-9 15 -20z m1620 -185 c0 -176 -2 -205 -15 -205 -8 0 -15 7 -15 15 0 8 -7 15
-15 15 -8 0 -15 9 -15 20 0 11 7 20 15 20 13 0 15 23 15 150 l0 150 -405 0
c-353 0 -405 -2 -405 -15 0 -8 -7 -15 -15 -15 -8 0 -15 -9 -15 -20 0 -13 -7
-20 -20 -20 -18 0 -20 -7 -20 -80 l0 -80 50 0 50 0 0 65 0 65 155 0 155 0 0
-100 0 -100 -35 0 c-28 0 -35 -4 -35 -20 0 -11 7 -20 15 -20 10 0 15 -10 15
-30 0 -20 -5 -30 -15 -30 -10 0 -15 10 -15 30 0 20 -5 30 -15 30 -10 0 -15
-10 -15 -30 0 -28 -3 -30 -35 -30 -32 0 -35 2 -35 30 0 20 5 30 15 30 8 0 15
9 15 20 0 18 -7 20 -85 20 -69 0 -85 3 -85 15 0 12 -14 15 -65 15 l-65 0 0
100 c0 82 3 100 15 100 8 0 15 9 15 20 0 13 7 20 20 20 11 0 20 7 20 15 0 8 7
15 15 15 8 0 15 9 15 20 0 20 7 20 420 20 l420 0 0 -205z m440 150 c0 -8 -7
-15 -15 -15 -8 0 -15 7 -15 15 0 8 7 15 15 15 8 0 15 -7 15 -15z m-670 -150
l0 -105 -35 0 c-24 0 -35 -5 -35 -15 0 -10 11 -15 35 -15 28 0 35 -4 35 -20 0
-11 6 -20 14 -20 8 0 16 -13 18 -30 l5 -31 -56 3 c-37 2 -55 7 -54 15 2 7 -4
10 -12 7 -8 -4 -12 -10 -9 -15 3 -5 -6 -9 -20 -9 -27 0 -28 2 -28 45 0 49 2
55 22 55 11 0 20 7 20 15 0 10 -11 15 -35 15 -33 0 -35 2 -35 35 0 28 -4 35
-20 35 -18 0 -20 7 -20 70 l0 70 105 0 105 0 0 -105z m60 35 c0 -56 -3 -70
-15 -70 -12 0 -15 14 -15 70 0 56 3 70 15 70 12 0 15 -14 15 -70z m80 50 c0
-13 -7 -20 -20 -20 -13 0 -20 7 -20 20 0 13 7 20 20 20 13 0 20 -7 20 -20z
m530 -5 c0 -8 -7 -15 -15 -15 -8 0 -15 7 -15 15 0 8 7 15 15 15 8 0 15 -7 15
-15z m-2390 -65 c0 -13 -7 -20 -20 -20 -13 0 -20 7 -20 20 0 13 7 20 20 20 13
0 20 -7 20 -20z m270 0 c0 -13 -7 -20 -20 -20 -13 0 -20 7 -20 20 0 13 7 20
20 20 13 0 20 -7 20 -20z m1590 -15 c0 -28 -4 -35 -20 -35 -16 0 -20 7 -20 35
0 28 4 35 20 35 16 0 20 -7 20 -35z m530 15 c0 -11 -7 -20 -15 -20 -8 0 -15 9
-15 20 0 11 7 20 15 20 8 0 15 -9 15 -20z m-4720 -65 c0 -10 10 -15 30 -15 20
0 30 5 30 15 0 12 14 15 70 15 l70 0 0 -220 c0 -189 -2 -220 -15 -220 -13 0
-15 23 -15 150 l0 150 -35 0 -35 0 0 -135 0 -135 -35 0 -35 0 0 120 c0 100 -2
120 -15 120 -8 0 -15 7 -15 15 0 10 -11 15 -35 15 -24 0 -35 -5 -35 -15 0 -8
-7 -15 -15 -15 -12 0 -15 16 -15 85 l0 85 50 0 c38 0 50 -4 50 -15z m4190 -35
c0 -13 -7 -20 -20 -20 -13 0 -20 7 -20 20 0 13 7 20 20 20 13 0 20 -7 20 -20z
m-680 -120 c0 -28 -3 -30 -35 -30 -32 0 -35 2 -35 30 0 28 3 30 35 30 32 0 35
-2 35 -30z m60 0 c0 -20 -5 -30 -15 -30 -10 0 -15 10 -15 30 0 20 5 30 15 30
10 0 15 -10 15 -30z m620 15 c0 -8 -9 -15 -20 -15 -11 0 -20 7 -20 15 0 8 9
15 20 15 11 0 20 -7 20 -15z m-3420 -50 c0 -24 -5 -35 -15 -35 -10 0 -15 11
-15 35 0 24 5 35 15 35 10 0 15 -11 15 -35z m3008 -47 c-4 -10 -56 -14 -221
-16 -184 -2 -217 0 -217 12 0 12 35 15 221 16 175 0 220 -2 217 -12z m402 -3
c0 -13 -27 -15 -183 -15 -157 0 -184 2 -184 15 0 13 27 15 184 15 156 0 183
-2 183 -15z m-980 -65 c0 -16 -7 -20 -30 -20 -23 0 -30 4 -30 20 0 16 7 20 30
20 23 0 30 -4 30 -20z m100 0 c0 -16 -7 -20 -30 -20 -23 0 -30 4 -30 20 0 16
7 20 30 20 23 0 30 -4 30 -20z m140 -35 c0 -10 -11 -15 -35 -15 -24 0 -35 5
-35 15 0 10 11 15 35 15 24 0 35 -5 35 -15z m100 -20 c0 -24 -5 -35 -15 -35
-10 0 -15 11 -15 35 0 24 5 35 15 35 10 0 15 -11 15 -35z m640 -50 c0 -8 -7
-15 -15 -15 -8 0 -15 7 -15 15 0 8 7 15 15 15 8 0 15 -7 15 -15z m-1620 -65
c0 -11 -7 -20 -15 -20 -8 0 -15 9 -15 20 0 11 7 20 15 20 8 0 15 -9 15 -20z
m310 0 c0 -13 -7 -20 -20 -20 -13 0 -20 7 -20 20 0 13 7 20 20 20 13 0 20 -7
20 -20z m330 -65 c0 -8 -7 -15 -15 -15 -8 0 -15 -9 -15 -20 0 -11 -7 -20 -15
-20 -8 0 -15 9 -15 20 0 11 7 20 15 20 8 0 15 7 15 15 0 8 7 15 15 15 8 0 15
-7 15 -15z m210 0 c0 -8 -9 -15 -20 -15 -13 0 -20 -7 -20 -20 0 -11 -7 -20
-15 -20 -8 0 -15 9 -15 20 0 11 7 20 15 20 8 0 15 7 15 15 0 8 9 15 20 15 11
0 20 -7 20 -15z m230 -55 c0 -56 -3 -70 -15 -70 -12 0 -15 13 -15 55 l0 55
-35 0 c-24 0 -35 5 -35 15 0 11 12 15 50 15 l50 0 0 -70z m-70 -35 c0 -32 -2
-35 -30 -35 -28 0 -30 3 -30 35 0 32 2 35 30 35 28 0 30 -3 30 -35z m410 20
c0 -10 -11 -15 -35 -15 -24 0 -35 5 -35 15 0 10 11 15 35 15 24 0 35 -5 35
-15z m-1760 -35 c0 -11 -7 -20 -15 -20 -8 0 -15 -7 -15 -15 0 -8 -7 -15 -15
-15 -8 0 -15 -7 -15 -15 0 -8 -9 -15 -20 -15 -11 0 -20 7 -20 15 0 8 9 15 20
15 11 0 20 7 20 15 0 8 7 15 15 15 8 0 15 9 15 20 0 11 7 20 15 20 8 0 15 -9
15 -20z m710 0 c0 -13 7 -20 20 -20 11 0 20 -7 20 -15 0 -8 7 -15 15 -15 8 0
15 -7 15 -15 0 -8 -7 -15 -15 -15 -8 0 -15 7 -15 15 0 8 -9 15 -20 15 -11 0
-20 7 -20 15 0 8 -7 15 -15 15 -8 0 -15 9 -15 20 0 11 7 20 15 20 8 0 15 -9
15 -20z m1760 -45 c0 -28 -4 -35 -20 -35 -16 0 -20 -7 -20 -35 0 -28 4 -35 20
-35 11 0 20 -7 20 -15 0 -8 7 -15 15 -15 8 0 15 -9 15 -20 0 -13 7 -20 20 -20
11 0 20 -7 20 -15 0 -8 7 -15 15 -15 10 0 15 -11 15 -35 0 -24 -5 -35 -15 -35
-10 0 -15 11 -15 35 0 28 -4 35 -20 35 -11 0 -20 7 -20 15 0 8 -7 15 -15 15
-8 0 -15 9 -15 20 0 13 -7 20 -20 20 -11 0 -20 7 -20 15 0 8 -7 15 -15 15 -12
0 -15 14 -15 70 l0 70 35 0 c33 0 35 -2 35 -35z m70 15 c0 -11 7 -20 15 -20 8
0 15 -7 15 -15 0 -8 7 -15 15 -15 10 0 15 -11 15 -35 0 -28 4 -35 20 -35 16 0
20 -7 20 -35 0 -24 5 -35 15 -35 11 0 15 -12 15 -50 l0 -50 -35 0 c-33 0 -35
2 -35 35 0 24 -5 35 -15 35 -8 0 -15 7 -15 15 0 8 -7 15 -15 15 -8 0 -15 9
-15 20 0 13 -7 20 -20 20 -11 0 -20 7 -20 15 0 8 -7 15 -15 15 -10 0 -15 11
-15 35 0 24 5 35 15 35 10 0 15 11 15 35 0 28 4 35 20 35 13 0 20 -7 20 -20z
m-4630 -5 c0 -8 -7 -15 -15 -15 -8 0 -15 7 -15 15 0 8 7 15 15 15 8 0 15 -7
15 -15z m1490 -15 c0 -28 -3 -30 -35 -30 -32 0 -35 2 -35 30 0 28 3 30 35 30
32 0 35 -2 35 -30z m100 0 c0 -28 -3 -30 -35 -30 -32 0 -35 2 -35 30 0 28 3
30 35 30 32 0 35 -2 35 -30z m2770 -15 c0 -8 7 -15 15 -15 8 0 15 -9 15 -20 0
-11 7 -20 15 -20 8 0 15 -7 15 -15 0 -8 9 -15 20 -15 11 0 20 -7 20 -15 0 -8
7 -15 15 -15 10 0 15 -11 15 -35 0 -24 5 -35 15 -35 11 0 15 -12 15 -50 l0
-50 170 0 c163 0 170 -1 170 -20 0 -13 7 -20 20 -20 16 0 20 -7 20 -30 0 -20
5 -30 15 -30 10 0 15 -11 15 -35 0 -24 5 -35 15 -35 12 0 15 -18 15 -100 0
-82 -3 -100 -15 -100 -8 0 -15 -9 -15 -20 0 -11 -7 -20 -15 -20 -10 0 -15 11
-15 35 0 24 5 35 15 35 8 0 15 7 15 15 0 11 -12 15 -50 15 -38 0 -50 -4 -50
-15 0 -8 7 -15 15 -15 10 0 15 -11 15 -35 0 -33 -2 -35 -35 -35 -33 0 -35 2
-35 35 0 24 -5 35 -15 35 -11 0 -15 -12 -15 -50 l0 -50 -85 0 c-69 0 -85 3
-85 15 0 8 -7 15 -15 15 -8 0 -15 9 -15 20 0 13 -7 20 -20 20 -11 0 -20 7 -20
15 0 8 -7 15 -15 15 -8 0 -15 7 -15 15 0 8 -7 15 -15 15 -8 0 -15 9 -15 20 0
13 -7 20 -20 20 -18 0 -20 7 -20 65 0 58 2 65 20 65 16 0 20 7 20 35 0 24 5
35 15 35 8 0 15 7 15 15 0 8 7 15 15 15 8 0 15 9 15 20 0 16 -7 20 -30 20 -23
0 -30 -4 -30 -20 0 -13 -7 -20 -20 -20 -11 0 -20 -7 -20 -15 0 -8 -7 -15 -15
-15 -8 0 -15 -7 -15 -15 0 -8 -7 -15 -15 -15 -10 0 -15 -11 -15 -35 0 -28 -4
-35 -20 -35 -16 0 -20 7 -20 35 0 28 4 35 20 35 11 0 20 7 20 15 0 8 7 15 15
15 8 0 15 7 15 15 0 8 7 15 15 15 8 0 15 9 15 20 0 11 -7 20 -15 20 -10 0 -15
10 -15 30 0 20 -5 30 -15 30 -8 0 -15 9 -15 20 0 13 -7 20 -20 20 -11 0 -20 7
-20 15 0 8 -7 15 -15 15 -8 0 -15 9 -15 20 0 13 -7 20 -20 20 -11 0 -20 7 -20
15 0 8 -7 15 -15 15 -11 0 -15 12 -15 50 l0 50 70 0 c56 0 70 -3 70 -15z
m-1290 -100 c0 -10 -10 -15 -30 -15 -20 0 -30 5 -30 15 0 10 10 15 30 15 20 0
30 -5 30 -15z m100 0 c0 -8 9 -15 20 -15 11 0 20 7 20 15 0 8 7 15 15 15 8 0
15 -7 15 -15 0 -10 11 -15 35 -15 28 0 35 -4 35 -20 0 -19 -7 -20 -100 -20
-93 0 -100 1 -100 20 0 11 7 20 15 20 8 0 15 7 15 15 0 8 7 15 15 15 8 0 15
-7 15 -15z m580 0 c0 -8 -9 -15 -20 -15 -11 0 -20 7 -20 15 0 8 9 15 20 15 11
0 20 -7 20 -15z m-3920 -70 c0 -8 -7 -15 -15 -15 -8 0 -15 7 -15 15 0 8 7 15
15 15 8 0 15 -7 15 -15z m3610 0 c0 -8 -7 -15 -15 -15 -8 0 -15 7 -15 15 0 8
7 15 15 15 8 0 15 -7 15 -15z m310 0 c0 -8 -9 -15 -20 -15 -11 0 -20 7 -20 15
0 8 9 15 20 15 11 0 20 -7 20 -15z m-910 -70 c0 -8 7 -15 15 -15 8 0 15 7 15
15 0 12 14 15 70 15 56 0 70 -3 70 -15 0 -8 7 -15 15 -15 8 0 15 -7 15 -15 0
-8 -7 -15 -15 -15 -8 0 -15 7 -15 15 0 12 -14 15 -70 15 -56 0 -70 -3 -70 -15
0 -8 -7 -15 -15 -15 -8 0 -15 7 -15 15 0 12 -16 15 -85 15 -69 0 -85 -3 -85
-15 0 -10 -11 -15 -35 -15 -24 0 -35 5 -35 15 0 10 11 15 35 15 24 0 35 5 35
15 0 12 16 15 85 15 69 0 85 -3 85 -15z m-1960 -30 c0 -8 -7 -15 -15 -15 -8 0
-15 7 -15 15 0 8 7 15 15 15 8 0 15 -7 15 -15z m70 0 c0 -8 -9 -15 -20 -15
-11 0 -20 7 -20 15 0 8 9 15 20 15 11 0 20 -7 20 -15z m60 0 c0 -8 -7 -15 -15
-15 -8 0 -15 7 -15 15 0 8 7 15 15 15 8 0 15 -7 15 -15z m2230 0 c0 -10 -11
-15 -35 -15 -24 0 -35 5 -35 15 0 10 11 15 35 15 24 0 35 -5 35 -15z m-670
-35 c0 -13 -7 -20 -20 -20 -13 0 -20 7 -20 20 0 13 7 20 20 20 13 0 20 -7 20
-20z m-2910 -65 c0 -8 -7 -15 -15 -15 -8 0 -15 7 -15 15 0 8 7 15 15 15 8 0
15 -7 15 -15z m5100 -410 c0 -8 7 -15 15 -15 8 0 15 -7 15 -15 0 -8 9 -15 20
-15 16 0 20 -7 20 -35 0 -28 -4 -35 -20 -35 -11 0 -20 -7 -20 -15 0 -8 -7 -15
-15 -15 -8 0 -15 -9 -15 -20 0 -11 -7 -20 -15 -20 -8 0 -15 -7 -15 -15 0 -8
-9 -15 -20 -15 -13 0 -20 -7 -20 -20 0 -17 -7 -20 -50 -20 -43 0 -50 3 -50 20
0 11 -7 20 -15 20 -8 0 -15 7 -15 15 0 8 -9 15 -20 15 -18 0 -20 7 -20 70 0
63 2 70 20 70 11 0 20 7 20 15 0 8 7 15 15 15 8 0 15 7 15 15 0 12 16 15 85
15 69 0 85 -3 85 -15z m950 -30 c0 -8 7 -15 15 -15 8 0 15 -9 15 -20 0 -11 7
-20 15 -20 8 0 15 -7 15 -15 0 -8 9 -15 20 -15 19 0 21 -6 19 -71 -1 -52 -5
-69 -15 -65 -15 6 -37 -18 -27 -28 4 -4 -16 -6 -45 -5 -36 2 -52 7 -52 16 0 8
5 11 12 7 6 -4 8 -3 4 4 -3 6 -16 9 -27 7 -17 -4 -20 0 -17 19 4 19 1 22 -18
18 -19 -3 -23 0 -19 16 3 15 -1 19 -16 15 -14 -4 -19 0 -19 16 0 12 -6 21 -15
21 -8 0 -15 7 -15 15 0 8 7 15 15 15 8 0 15 7 15 15 0 8 7 15 15 15 8 0 15 9
15 20 0 13 7 20 20 20 11 0 20 7 20 15 0 10 11 15 35 15 24 0 35 -5 35 -15z
m-1320 -35 c0 -11 -7 -20 -15 -20 -8 0 -15 9 -15 20 0 11 7 20 15 20 8 0 15
-9 15 -20z m-100 -65 c0 -10 11 -15 35 -15 28 0 35 -4 35 -20 0 -13 -7 -20
-20 -20 -11 0 -20 -7 -20 -15 0 -8 -7 -15 -15 -15 -8 0 -15 7 -15 15 0 8 -9
15 -20 15 -11 0 -20 -7 -20 -15 0 -8 9 -15 20 -15 13 0 20 -7 20 -20 0 -16 -7
-20 -35 -20 l-35 0 0 55 c0 42 3 55 15 55 8 0 15 7 15 15 0 8 9 15 20 15 11 0
20 -7 20 -15z m710 0 c0 -8 -9 -15 -20 -15 -13 0 -20 -7 -20 -20 0 -13 7 -20
20 -20 16 0 20 -7 20 -35 0 -28 -4 -35 -20 -35 -16 0 -20 7 -20 35 0 24 -5 35
-15 35 -8 0 -15 9 -15 20 0 11 -7 20 -15 20 -8 0 -15 7 -15 15 0 11 12 15 50
15 38 0 50 -4 50 -15z m1080 -305 c0 -13 -7 -20 -20 -20 -13 0 -20 7 -20 20 0
13 7 20 20 20 13 0 20 -7 20 -20z m-710 -70 c0 -13 -7 -20 -20 -20 -13 0 -20
7 -20 20 0 13 7 20 20 20 13 0 20 -7 20 -20z m130 0 c0 -13 7 -20 20 -20 11 0
20 -7 20 -15 0 -8 -9 -15 -20 -15 -11 0 -20 7 -20 15 0 8 -7 15 -15 15 -8 0
-15 9 -15 20 0 11 7 20 15 20 8 0 15 -9 15 -20z m170 0 c0 -11 -7 -20 -15 -20
-8 0 -15 9 -15 20 0 11 7 20 15 20 8 0 15 -9 15 -20z m100 0 c0 -11 -7 -20
-15 -20 -8 0 -15 9 -15 20 0 11 7 20 15 20 8 0 15 -9 15 -20z m140 0 c0 -13
-7 -20 -20 -20 -13 0 -20 7 -20 20 0 13 7 20 20 20 13 0 20 -7 20 -20z m170 0
c0 -13 -7 -20 -20 -20 -13 0 -20 7 -20 20 0 13 7 20 20 20 13 0 20 -7 20 -20z
m1920 -165 c0 -10 11 -15 35 -15 28 0 35 -4 35 -20 0 -17 -7 -20 -50 -20 -38
0 -50 -4 -50 -15 0 -13 -24 -15 -155 -15 -131 0 -155 2 -155 15 0 8 -7 15 -15
15 -8 0 -15 9 -15 20 0 16 7 20 35 20 28 0 35 -4 35 -20 0 -16 7 -20 30 -20
23 0 30 4 30 20 0 13 7 20 20 20 11 0 20 7 20 15 0 12 18 15 100 15 82 0 100
-3 100 -15z m-400 -35 c0 -11 7 -20 15 -20 8 0 15 -7 15 -15 0 -12 -14 -15
-70 -15 -56 0 -70 3 -70 15 0 8 9 15 20 15 13 0 20 7 20 20 0 16 7 20 35 20
28 0 35 -4 35 -20z m-2270 -35 c0 -8 -7 -15 -15 -15 -8 0 -15 7 -15 15 0 8 7
15 15 15 8 0 15 -7 15 -15z m240 0 c0 -8 -7 -15 -15 -15 -8 0 -15 -9 -15 -20
0 -13 -7 -20 -20 -20 -16 0 -20 7 -20 35 0 33 2 35 35 35 24 0 35 -5 35 -15z
m70 -20 c0 -28 -4 -35 -20 -35 -16 0 -20 7 -20 35 0 28 4 35 20 35 16 0 20 -7
20 -35z m270 20 c0 -8 -9 -15 -20 -15 -13 0 -20 -7 -20 -20 0 -16 -7 -20 -30
-20 -23 0 -30 4 -30 20 0 11 7 20 15 20 8 0 15 7 15 15 0 10 11 15 35 15 24 0
35 -5 35 -15z m-580 -70 c0 -8 -7 -15 -15 -15 -8 0 -15 7 -15 15 0 8 7 15 15
15 8 0 15 -7 15 -15z m40 -100 c0 -10 -11 -15 -35 -15 -24 0 -35 5 -35 15 0
10 11 15 35 15 24 0 35 -5 35 -15z m100 0 c0 -10 -11 -15 -35 -15 -24 0 -35 5
-35 15 0 10 11 15 35 15 24 0 35 -5 35 -15z m130 0 c0 -8 -7 -15 -15 -15 -8 0
-15 7 -15 15 0 8 7 15 15 15 8 0 15 -7 15 -15z m110 0 c0 -10 -11 -15 -35 -15
-24 0 -35 5 -35 15 0 10 11 15 35 15 24 0 35 -5 35 -15z m160 -20 c0 -24 -5
-35 -15 -35 -10 0 -15 11 -15 35 0 24 5 35 15 35 10 0 15 -11 15 -35z"/>
<path d="M10360 6330 c0 -11 7 -20 15 -20 8 0 15 -7 15 -15 0 -8 9 -15 20 -15
13 0 20 -7 20 -20 0 -11 7 -20 15 -20 8 0 15 -7 15 -15 0 -10 11 -15 35 -15
24 0 35 5 35 15 0 8 -7 15 -15 15 -8 0 -15 9 -15 20 0 13 -7 20 -20 20 -11 0
-20 7 -20 15 0 8 -7 15 -15 15 -8 0 -15 9 -15 20 0 16 -7 20 -35 20 -28 0 -35
-4 -35 -20z"/>
<path d="M9380 5685 c0 -8 -7 -15 -15 -15 -8 0 -15 -7 -15 -15 0 -8 -9 -15
-20 -15 -13 0 -20 -7 -20 -20 0 -11 -7 -20 -15 -20 -8 0 -15 -7 -15 -15 0 -8
7 -15 15 -15 8 0 15 7 15 15 0 8 9 15 20 15 13 0 20 7 20 20 0 11 7 20 15 20
8 0 15 7 15 15 0 8 9 15 20 15 11 0 20 7 20 15 0 8 -9 15 -20 15 -11 0 -20 -7
-20 -15z"/>
<path d="M9080 5415 c0 -12 14 -15 65 -15 51 0 65 -3 65 -15 0 -8 9 -15 20
-15 13 0 20 -7 20 -20 0 -11 7 -20 15 -20 8 0 15 -7 15 -15 0 -8 7 -15 15 -15
8 0 15 -7 15 -15 0 -8 9 -15 20 -15 13 0 20 -7 20 -20 0 -11 7 -20 15 -20 8 0
15 -7 15 -15 0 -8 9 -15 20 -15 13 0 20 -7 20 -20 0 -13 -7 -20 -20 -20 -11 0
-20 -7 -20 -15 0 -8 -7 -15 -15 -15 -8 0 -15 -7 -15 -15 0 -8 -9 -15 -20 -15
-13 0 -20 -7 -20 -20 0 -11 -7 -20 -15 -20 -8 0 -15 -7 -15 -15 0 -8 -7 -15
-15 -15 -8 0 -15 -7 -15 -15 0 -8 -9 -15 -20 -15 -11 0 -20 7 -20 15 0 8 -7
15 -15 15 -8 0 -15 7 -15 15 0 8 -7 15 -15 15 -8 0 -15 9 -15 20 0 13 -7 20
-20 20 -18 0 -20 7 -20 65 0 58 2 65 20 65 17 0 20 7 20 50 l0 50 -55 0 c-42
0 -55 -3 -55 -15 0 -8 9 -15 20 -15 11 0 20 -7 20 -15 0 -8 -9 -15 -20 -15
-13 0 -20 -7 -20 -20 0 -13 7 -20 20 -20 16 0 20 -7 20 -35 0 -28 -4 -35 -20
-35 -13 0 -20 7 -20 20 0 11 -7 20 -15 20 -8 0 -15 7 -15 15 0 8 -7 15 -15 15
-8 0 -15 9 -15 20 0 13 -7 20 -20 20 -11 0 -20 7 -20 15 0 8 -7 15 -15 15 -8
0 -15 -7 -15 -15 0 -8 -7 -15 -15 -15 -8 0 -15 -9 -15 -20 0 -13 -7 -20 -20
-20 -11 0 -20 -7 -20 -15 0 -8 -7 -15 -15 -15 -8 0 -15 -9 -15 -20 0 -13 -7
-20 -20 -20 -16 0 -20 -7 -20 -30 0 -23 4 -30 20 -30 13 0 20 -7 20 -20 0 -11
7 -20 15 -20 8 0 15 -7 15 -15 0 -8 9 -15 20 -15 11 0 20 -7 20 -15 0 -8 7
-15 15 -15 8 0 15 -9 15 -20 0 -11 7 -20 15 -20 8 0 15 -7 15 -15 0 -8 9 -15
20 -15 13 0 20 -7 20 -20 0 -11 7 -20 15 -20 8 0 15 -7 15 -15 0 -8 7 -15 15
-15 10 0 15 -11 15 -35 0 -24 -5 -35 -15 -35 -8 0 -15 -7 -15 -15 0 -8 -7 -15
-15 -15 -8 0 -15 -7 -15 -15 0 -8 -9 -15 -20 -15 -13 0 -20 -7 -20 -20 0 -11
-7 -20 -15 -20 -8 0 -15 -7 -15 -15 0 -8 -7 -15 -15 -15 -8 0 -15 -9 -15 -20
0 -18 -7 -20 -55 -20 -48 0 -55 2 -55 20 0 11 -7 20 -15 20 -8 0 -15 7 -15 15
0 8 -7 15 -15 15 -8 0 -15 9 -15 20 0 13 -7 20 -20 20 -11 0 -20 7 -20 15 0 8
-7 15 -15 15 -8 0 -15 7 -15 15 0 8 -7 15 -15 15 -8 0 -15 9 -15 20 0 13 -7
20 -20 20 -16 0 -20 7 -20 30 0 20 -5 30 -15 30 -10 0 -15 -10 -15 -30 0 -20
5 -30 15 -30 8 0 15 -9 15 -20 0 -13 7 -20 20 -20 11 0 20 -7 20 -15 0 -8 7
-15 15 -15 8 0 15 -7 15 -15 0 -8 7 -15 15 -15 8 0 15 -9 15 -20 0 -13 7 -20
20 -20 11 0 20 -7 20 -15 0 -8 7 -15 15 -15 8 0 15 -9 15 -20 0 -11 7 -20 15
-20 8 0 15 -7 15 -15 0 -12 13 -15 55 -15 42 0 55 3 55 15 0 8 7 15 15 15 8 0
15 9 15 20 0 11 7 20 15 20 8 0 15 7 15 15 0 8 9 15 20 15 13 0 20 7 20 20 0
11 7 20 15 20 8 0 15 7 15 15 0 8 7 15 15 15 8 0 15 7 15 15 0 8 9 15 20 15
13 0 20 7 20 20 0 11 7 20 15 20 8 0 15 7 15 15 0 8 9 15 20 15 11 0 20 7 20
15 0 8 7 15 15 15 8 0 15 9 15 20 0 11 7 20 15 20 8 0 15 7 15 15 0 8 9 15 20
15 13 0 20 7 20 20 0 11 7 20 15 20 8 0 15 7 15 15 0 8 7 15 15 15 8 0 15 7
15 15 0 8 9 15 20 15 13 0 20 7 20 20 0 11 7 20 15 20 8 0 15 7 15 15 0 8 9
15 20 15 11 0 20 7 20 15 0 8 7 15 15 15 8 0 15 9 15 20 0 11 -7 20 -15 20 -8
0 -15 7 -15 15 0 8 -9 15 -20 15 -13 0 -20 7 -20 20 0 11 -7 20 -15 20 -8 0
-15 7 -15 15 0 8 -9 15 -20 15 -11 0 -20 7 -20 15 0 8 -7 15 -15 15 -8 0 -15
9 -15 20 0 11 -7 20 -15 20 -8 0 -15 7 -15 15 0 8 -9 15 -20 15 -11 0 -20 7
-20 15 0 12 -14 15 -65 15 -51 0 -65 -3 -65 -15z m-200 -235 c0 -16 7 -20 30
-20 20 0 30 -5 30 -15 0 -10 -10 -15 -30 -15 -20 0 -30 -5 -30 -15 0 -8 -9
-15 -20 -15 -11 0 -20 7 -20 15 0 8 9 15 20 15 11 0 20 7 20 15 0 8 -9 15 -20
15 -13 0 -20 7 -20 20 0 13 7 20 20 20 13 0 20 -7 20 -20z m130 -65 c0 -8 -7
-15 -15 -15 -8 0 -15 -9 -15 -20 0 -16 -7 -20 -35 -20 -28 0 -35 4 -35 20 0
16 7 20 35 20 24 0 35 5 35 15 0 8 7 15 15 15 8 0 15 -7 15 -15z m70 -70 c0
-8 -9 -15 -20 -15 -11 0 -20 -7 -20 -15 0 -10 -10 -15 -30 -15 -20 0 -30 5
-30 15 0 10 10 15 30 15 20 0 30 5 30 15 0 8 9 15 20 15 11 0 20 -7 20 -15z
m70 -65 c0 -13 -7 -20 -20 -20 -11 0 -20 -7 -20 -15 0 -8 -7 -15 -15 -15 -8 0
-15 -9 -15 -20 0 -13 -7 -20 -20 -20 -16 0 -20 7 -20 35 0 28 4 35 20 35 13 0
20 7 20 20 0 16 7 20 35 20 28 0 35 -4 35 -20z"/>
<path d="M9180 5235 c0 -24 -5 -35 -15 -35 -8 0 -15 -9 -15 -20 0 -11 7 -20
15 -20 8 0 15 -7 15 -15 0 -8 7 -15 15 -15 8 0 15 7 15 15 0 10 11 15 35 15
33 0 35 2 35 35 0 24 -5 35 -15 35 -8 0 -15 -7 -15 -15 0 -8 -9 -15 -20 -15
-16 0 -20 7 -20 35 0 24 -5 35 -15 35 -10 0 -15 -11 -15 -35z m30 -55 c0 -11
-7 -20 -15 -20 -8 0 -15 9 -15 20 0 11 7 20 15 20 8 0 15 -9 15 -20z"/>
<path d="M9250 5115 c0 -8 7 -15 15 -15 8 0 15 7 15 15 0 8 -7 15 -15 15 -8 0
-15 -7 -15 -15z"/>
<path d="M8670 4995 c0 -32 -2 -35 -30 -35 -20 0 -30 -5 -30 -15 0 -8 7 -15
15 -15 10 0 15 -11 15 -35 0 -24 5 -35 15 -35 11 0 15 12 15 50 l0 50 35 0
c28 0 35 4 35 20 0 11 -7 20 -15 20 -8 0 -15 7 -15 15 0 8 -9 15 -20 15 -16 0
-20 -7 -20 -35z"/>
<path d="M8740 4910 c0 -11 -7 -20 -15 -20 -8 0 -15 -7 -15 -15 0 -8 7 -15 15
-15 8 0 15 -7 15 -15 0 -8 -7 -15 -15 -15 -8 0 -15 -9 -15 -20 0 -16 7 -20 30
-20 28 0 30 3 30 35 0 28 4 35 20 35 11 0 20 7 20 15 0 8 -9 15 -20 15 -13 0
-20 7 -20 20 0 11 -7 20 -15 20 -8 0 -15 -9 -15 -20z"/>
<path d="M8840 4810 c0 -11 -7 -20 -15 -20 -11 0 -15 -12 -15 -50 0 -38 4 -50
15 -50 10 0 15 11 15 35 0 28 4 35 20 35 16 0 20 7 20 35 0 28 -4 35 -20 35
-13 0 -20 -7 -20 -20z"/>
<path d="M8910 4775 c0 -8 7 -15 15 -15 8 0 15 7 15 15 0 8 -7 15 -15 15 -8 0
-15 -7 -15 -15z"/>
<path d="M270 3595 c0 -10 11 -15 35 -15 24 0 35 5 35 15 0 10 -11 15 -35 15
-24 0 -35 -5 -35 -15z"/>
<path d="M440 3595 c0 -10 11 -15 35 -15 24 0 35 5 35 15 0 10 -11 15 -35 15
-24 0 -35 -5 -35 -15z"/>
<path d="M4720 2885 c0 -8 9 -15 20 -15 11 0 20 -7 20 -15 0 -8 7 -15 15 -15
8 0 15 -9 15 -20 0 -13 7 -20 20 -20 11 0 20 -7 20 -15 0 -8 7 -15 15 -15 8 0
15 -9 15 -20 0 -11 7 -20 15 -20 10 0 15 -10 15 -30 0 -23 4 -30 20 -30 16 0
20 7 20 30 0 23 -4 30 -20 30 -13 0 -20 7 -20 20 0 11 -7 20 -15 20 -8 0 -15
7 -15 15 0 8 -7 15 -15 15 -8 0 -15 9 -15 20 0 13 -7 20 -20 20 -11 0 -20 7
-20 15 0 8 -7 15 -15 15 -8 0 -15 7 -15 15 0 8 -9 15 -20 15 -11 0 -20 -7 -20
-15z"/>
<path d="M5160 2565 c0 -58 2 -65 20 -65 13 0 20 -7 20 -20 0 -11 7 -20 15
-20 8 0 15 -7 15 -15 0 -8 7 -15 15 -15 8 0 15 -7 15 -15 0 -12 14 -15 70 -15
l70 0 0 50 c0 38 -4 50 -15 50 -8 0 -15 7 -15 15 0 8 -9 15 -20 15 -13 0 -20
7 -20 20 0 11 -7 20 -15 20 -8 0 -15 7 -15 15 0 8 -9 15 -20 15 -11 0 -20 7
-20 15 0 11 -12 15 -50 15 l-50 0 0 -65z m100 20 c0 -8 9 -15 20 -15 13 0 20
-7 20 -20 0 -11 7 -20 15 -20 8 0 15 -7 15 -15 0 -8 9 -15 20 -15 13 0 20 -7
20 -20 0 -13 -7 -20 -20 -20 -13 0 -20 7 -20 20 0 11 -7 20 -15 20 -8 0 -15 7
-15 15 0 8 -9 15 -20 15 -13 0 -20 7 -20 20 0 11 -7 20 -15 20 -8 0 -15 7 -15
15 0 8 7 15 15 15 8 0 15 -7 15 -15z"/>
<path d="M4960 2500 c0 -56 3 -70 15 -70 8 0 15 -7 15 -15 0 -8 9 -15 20 -15
13 0 20 -7 20 -20 0 -11 7 -20 15 -20 8 0 15 -7 15 -15 0 -12 14 -15 70 -15
l70 0 0 50 c0 43 -3 50 -20 50 -11 0 -20 -7 -20 -15 0 -8 -7 -15 -15 -15 -8 0
-15 7 -15 15 0 8 -7 15 -15 15 -8 0 -15 7 -15 15 0 8 -9 15 -20 15 -13 0 -20
7 -20 20 0 13 7 20 20 20 13 0 20 -7 20 -20 0 -11 7 -20 15 -20 8 0 15 -7 15
-15 0 -8 7 -15 15 -15 8 0 15 7 15 15 0 8 -7 15 -15 15 -8 0 -15 9 -15 20 0
11 -7 20 -15 20 -8 0 -15 7 -15 15 0 8 -9 15 -20 15 -13 0 -20 7 -20 20 0 17
-7 20 -50 20 l-50 0 0 -70z"/>
<path d="M70 3595 c0 -10 10 -15 30 -15 20 0 30 5 30 15 0 10 -10 15 -30 15
-20 0 -30 -5 -30 -15z"/>
<path d="M30 2990 l0 -120 50 0 50 0 0 120 0 120 -50 0 -50 0 0 -120z"/>
<path d="M200 3005 c0 -98 1 -105 20 -105 13 0 20 7 20 20 0 11 7 20 15 20 8
0 15 7 15 15 0 8 7 15 15 15 8 0 15 7 15 15 0 8 9 15 20 15 18 0 20 7 20 55
l0 55 -70 0 -70 0 0 -105z"/>
</g>
</svg>
